<svg width="115" height="29" viewBox="0 0 115 29" xmlns="http://www.w3.org/2000/svg">
    <g>
        <path d="m112.051523 8.38800229.208024-2.7771573c.003083-.04039784.034634-.07151915.072574-.07151915h.863258c.033961 0 .063438.02507659.071004.060507l.242938 1.14149346c.004147.01963036.030599.01903187.033905-.00077803l.193679-1.13742376c.006276-.03692662.03637-.06379867.071564-.06379867h.754706c.036259 0 .067026.02854781.072013.06697065l.3641 2.77709746c.006108.04680165-.027853.08851616-.072013.08851616h-.679948c-.034969 0-.065007-.02651295-.071452-.06320018l-.167395-.93854666c-.006781-.03788421-.058395-.03531071-.061813.00311213l-.082829.92831254c-.003531.03985921-.034914.07032217-.072461.07032217h-.536763c-.033064 0-.061925-.02381976-.070387-.0579335l-.226014-.91730039c-.006109-.02483719-.040126-.02106673-.041415.0045485l-.04416.89701169c-.002018.04129558-.033905.0736737-.07263.0736737h-.675968c-.042479 0-.075936-.03872208-.072517-.08390782"></path><path d="m111.723647 5.60845104v.57987366c0 .03824329-.028287.06918505-.063072.06918505h-.341571c-.017639 0-.031837.01591974-.031345.03525086l.051986 2.10810914c.000983.03890163-.027522.07104036-.063072.07104036h-.636562c-.034839 0-.063072-.03094175-.063072-.06918505v-2.10960536c0-.01969021-.014634-.03560995-.032546-.03560995h-.395851c-.03484 0-.063072-.03094176-.063072-.06918505v-.57987366c0-.03818344.028287-.0691252.063072-.0691252h1.512033c.034785 0 .063072.03100161.063072.0691252"></path><path d="m101.730769 5.86516854c-6.0617933 0-10.9757832 4.88710346-10.9757832 10.91573036s4.9139899 10.9157303 10.9757832 10.9157303c6.061794 0 10.975784-4.8871034 10.975784-10.9157303s-4.91399-10.91573036-10.975784-10.91573036zm4.041664 13.54522786.489842 1.7957687c.028332.1039177-.066206.1998015-.171222.1735455l-1.734818-.4330197c-.09565-.0238691-.19733-.0122839-.283614.0353378-.664401.3670597-1.426149.5833949-2.240465.6006854-2.6460124.0559468-4.8632963-2.0514587-4.9292681-4.6828774-.0669083-2.6651847 2.0659644-4.8842508 4.7629051-4.9215099 2.560665-.035396 4.725265 1.9578454 4.884721 4.4998425.067845 1.0812104-.227477 2.0964024-.778491 2.93246z"></path><path d="m79.6153846 7.49438202c-5.790321 0-10.4843305 4.66832658-10.4843305 10.42696628s4.6940095 10.4269663 10.4843305 10.4269663c5.7902628 0 10.4843305-4.6683266 10.4843305-10.4269663s-4.6940677-10.42696628-10.4843305-10.42696628m4.7841165 10.40686538-6.6411826 5.2054892c-.1732245.1357823-.4286344.0246771-.4461083-.1939995l-.7316898-9.1795536c-.0172991-.2170547.2142298-.3668554.406792-.2630492l7.3728142 3.9740645c.1744476.0940744.1952416.3349373.0393745.4570486"></path><path d="m51.9117755 6.51912386 16.5361281-.3280147c.2623927-.00525979.480824.20201081.4916568.46650337l.1904038 4.65647927c.0124949.3062241-.0827644.6070728-.2689268.8493124l-7.040527 9.1594997c-.0747974.0973351-.0085974.2391184.1134284.242991l6.4811227.2075018c.2524771.008092.4560636.2111432.4668963.4656364l.2465162 5.816871c.0114632.2717175-.2000329.5002007-.4695901.5072523l-16.7250417.4366786c-.271334.0070516-.4950957-.2128194-.4950957-.4865021v-4.4522721c0-.3525219.0974945-.69805.2815935-.9978005l6.5525385-10.6702747c.0688365-.1119585-.0116925-.2564006-.1422583-.2553024l-6.2053181.0512686c-.268067.0021964-.4865556-.2162874-.4865556-.4866178v-4.69659239c-.0000574-.26507056.2102924-.48141576.473029-.48661775"></path><path d="m30.6573374 5.33367762 6.9371186-.10333679c.2078555-.00314023.3978848.11706075.4838116.30599783l4.2086075 9.25326514c.0548184.1204917.2358764.0782149.2313907-.0541399l-.3109676-9.1567903c-.0098452-.2905293.2200308-.53308288.5111334-.53936334l6.9822083-.15154511c.2906948-.00628045.5307073.22545679.5340861.51575348l.2210794 19.25640517c.0032624.2841907-.221895.5186611-.5064147.5275584l-6.6267335.2067317c-.1951558.0060478-.3774371-.09694-.4726848-.2670939l-4.3682857-7.8060268c-.0507988-.0907758-.1893303-.0532094-.1872331.0506508l.1560664 7.6861165c.0058255.287738-.2227689.525872-.5110169.5322688l-6.8205494.1513125c-.2885393.0063967-.527678-.2217932-.5342609-.509822l-.4421007-19.36427778c-.0066993-.28971516.2245166-.52936113.5147453-.5336644"></path><path d="m21.5189744 8.29580964 6.7381196-.14960437c.3154416-.0069827.5748148.25219189.5748148.57438535v17.74985148c0 .3173056-.2518518.5745017-.5625641.5745017h-6.7381766c-.3106553 0-.5625071-.2571961-.5625071-.5745017v-17.6003053c0-.31241768.2444444-.56751902.5503134-.57432716"></path><path d="m28.5042735 3.25842697c0 1.79960674-1.466846 3.25842696-3.2763533 3.25842696s-3.2763532-1.45882022-3.2763532-3.25842696c0-1.79960675 1.4668459-3.25842697 3.2763532-3.25842697s3.2763533 1.45882022 3.2763533 3.25842697"></path><path d="m.00013332 1.4281048.61668097 26.7572981c.00627842.2716905.23003455.4887544.50395996.4887544h6.4996825c.2794481 0 .5055877-.2256011.50407623-.5029446l-.04290258-7.7461196c-.00296481-.5349014.72835556-.7005114.95949466-.217237l3.77461304 7.8921172c.0834798.1744933.2607291.2857076.4554184.2857076h7.1926929c.3850768 0 .6279007-.4111121.4398967-.7444664l-7.3517463-13.0341041c-.0838286-.148651-.0856307-.3294319-.0048251-.4797557l6.8512163-12.74003231c.1806791-.33595014-.0681326-.74100541-.4518142-.73558314l-7.1182819.09944678c-.1756215.0024804-.3374072.0954666-.4268167.24555971l-4.30967442 7.23284963c-.07545738.12655814-.27061179.07816148-.27712275-.06875902l-.30525941-6.91616587c-.01197551-.27197886-.2410218-.48448578-.51529601-.47814057l-6.50177531.15003542c-.27822729.00646058-.49855354.23540737-.49221698.51153947"></path>
    </g>
</svg>